<svg width="20" height="20" viewBox="0 0 20 20" fill="none" xmlns="http://www.w3.org/2000/svg">
<path d="M5.5455 1.04443C6.31896 1.14041 7.08638 1.38962 7.80381 1.80383C10.6736 3.46068 11.6568 7.13022 9.99996 9.99998C8.34311 7.13022 4.67357 6.14697 1.80381 7.80383C1.08742 8.21744 0.488587 8.75648 0.019043 9.37719C0.243733 5.72054 2.43352 2.59532 5.5455 1.04443Z" fill="url(#paint0_linear_2199_1155)"/>
<path d="M0.0190778 9.37723C0.488622 8.75652 1.08745 8.21748 1.80385 7.80387C4.6736 6.14702 8.34315 7.13027 10 10C6.68629 10 4 12.6863 4 16C4 16.8277 4.1676 17.6163 4.47071 18.3336C1.77601 16.5421 0 13.4785 0 10C0 9.79087 0.0064214 9.58321 0.0190778 9.37723Z" fill="url(#paint1_linear_2199_1155)"/>
<path d="M4.47071 18.3336C4.1676 17.6163 4 16.8277 4 16C4 12.6863 6.68629 10 10 10C8.34315 12.8698 9.3264 16.5393 12.1962 18.1962C12.9136 18.6104 13.681 18.8596 14.4545 18.9555C13.1131 19.624 11.6005 20 10 20C7.9556 20 6.05448 19.3865 4.47071 18.3336Z" fill="url(#paint2_linear_2199_1155)"/>
<path d="M14.4544 18.9555C13.681 18.8596 12.9136 18.6104 12.1961 18.1962C9.32638 16.5393 8.34312 12.8698 9.99998 10C11.6568 12.8698 15.3264 13.853 18.1961 12.1962C18.9125 11.7825 19.5114 11.2435 19.9809 10.6228C19.7562 14.2794 17.5664 17.4047 14.4544 18.9555Z" fill="url(#paint3_linear_2199_1155)"/>
<path d="M19.9809 10.6229C19.5114 11.2436 18.9125 11.7826 18.1962 12.1962C15.3264 13.8531 11.6569 12.8698 10 10.0001C13.3137 10.0001 16 7.31379 16 4.00008C16 3.17238 15.8324 2.38383 15.5293 1.6665C18.224 3.45801 20 6.52164 20 10.0001C20 10.2092 19.9936 10.4169 19.9809 10.6229Z" fill="url(#paint4_linear_2199_1155)"/>
<path d="M15.5293 1.66642C15.8324 2.38375 16 3.1723 16 4C16 7.31371 13.3137 10 10 10C11.6569 7.13024 10.6736 3.4607 7.80385 1.80385C7.08641 1.38964 6.31899 1.14043 5.54553 1.04445C6.88686 0.375988 8.39952 0 10 0C12.0444 0 13.9455 0.613493 15.5293 1.66642Z" fill="url(#paint5_linear_2199_1155)"/>
<defs>
<linearGradient id="paint0_linear_2199_1155" x1="172.591" y1="1.04443" x2="172.591" y2="287.622" gradientUnits="userSpaceOnUse">
<stop stop-color="#FFD305"/>
<stop offset="1" stop-color="#FDCF01"/>
</linearGradient>
<linearGradient id="paint1_linear_2199_1155" x1="160" y1="6.99902" x2="160" y2="369.706" gradientUnits="userSpaceOnUse">
<stop stop-color="#52CF30"/>
<stop offset="1" stop-color="#3BBD1C"/>
</linearGradient>
<linearGradient id="paint2_linear_2199_1155" x1="171.271" y1="10" x2="171.271" y2="330" gradientUnits="userSpaceOnUse">
<stop stop-color="#14ADF6"/>
<stop offset="1" stop-color="#1191F4"/>
</linearGradient>
<linearGradient id="paint3_linear_2199_1155" x1="181.767" y1="10" x2="181.767" y2="296.577" gradientUnits="userSpaceOnUse">
<stop stop-color="#CA70E1"/>
<stop offset="1" stop-color="#B452CB"/>
</linearGradient>
<linearGradient id="paint4_linear_2199_1155" x1="170" y1="1.6665" x2="170" y2="364.373" gradientUnits="userSpaceOnUse">
<stop stop-color="#FF645D"/>
<stop offset="1" stop-color="#FF4332"/>
</linearGradient>
<linearGradient id="paint5_linear_2199_1155" x1="172.817" y1="0" x2="172.817" y2="320" gradientUnits="userSpaceOnUse">
<stop stop-color="#FBB114"/>
<stop offset="1" stop-color="#FF9508"/>
</linearGradient>
</defs>
</svg>
